<svg width="961" height="641" fill="none" xmlns="http://www.w3.org/2000/svg"><path fill-rule="evenodd" clip-rule="evenodd" d="M557.067 136.015a199.997 199.997 0 010 369.551 199.997 199.997 0 01-153.073 0 199.997 199.997 0 01-108.239-261.312 199.997 199.997 0 01261.312-108.239z" fill="url(#paint0_radial)"/><mask id="a" maskUnits="userSpaceOnUse" x="235" y="75" width="491" height="491"><path fill-rule="evenodd" clip-rule="evenodd" d="M602.283 162.12a199.996 199.996 0 0176.536 132.565 199.997 199.997 0 01-172.183 224.394 199.997 199.997 0 01-224.395-172.183A200.002 200.002 0 01602.283 162.12z" fill="url(#paint1_linear)"/></mask><g mask="url(#a)" fill-rule="evenodd" clip-rule="evenodd"><path d="M536.665 30.707c67.359 54.336 144.858 135.757 95.736 220.611-49.122 84.855-95.774 40.85-236.494 122.095-88.689 51.204-77.407 142.84-153.914 120.05-74.808-22.283-14.362-110.274-44.529-182.266-27.499-65.623-68.455-129.081-47.81-197.172 25.007-82.48 79.025-165.536 163.282-183.676 84.067-18.098 156.797 46.367 223.729 100.358z" fill="url(#paint2_radial)"/><path d="M565.887-31.393c48.011 72.004 118.311 142.12 63.385 223.337-43.104 63.735-147.104 69.276-288.078 89.88-99.947 22.317-125.729 134.695-191.91 90.054-64.71-43.65 16.246-159.426 9.007-237.146-6.6-70.845-26.689-143.652 13.387-202.444 48.545-71.216 124.943-134.3 210.767-126.393 85.631 7.89 135.735 91.166 183.442 162.712z" fill="url(#paint3_radial)"/><path d="M102.342 279.307c22.066-83.5 64.708-187.262 162.214-177.02 97.505 10.242 76.407 70.666 208.041 165.858 82.962 59.995 161.979 12.427 172.438 91.427 10.227 77.247-94.768 57.961-148.141 114.748-48.653 51.764-89.831 114.912-160.404 123.803-85.487 10.769-183.352-4.667-234.329-74.077-50.862-69.254-21.746-161.77.181-244.739z" fill="url(#paint4_radial)"/></g><path fill-rule="evenodd" clip-rule="evenodd" d="M605.877 164.943a199.987 199.987 0 0159.429 79.311l-.018.007c2.689 6.49 3.293 13.858 1.717 21.95-3.945 20.251-21.324 43.901-49.443 67.281-28.118 23.38-65.405 45.184-106.076 62.031-40.672 16.847-82.455 27.794-118.871 31.145-36.415 3.35-65.427-1.083-82.535-12.614-6.837-4.607-11.62-10.245-14.308-16.734l-.018.007a199.987 199.987 0 01-14.058-98.104c-34.767 28.3-59.265 57.25-70.598 83.715-13.68 31.949-7.408 58.492 17.845 75.511 25.252 17.019 68.074 23.563 121.824 18.618 53.749-4.945 115.422-21.104 175.454-45.97 60.032-24.866 115.067-57.05 156.571-91.559 41.503-34.51 67.155-69.417 72.977-99.307 5.822-29.891-8.511-53.095-40.777-66.013-26.726-10.701-64.52-13.848-109.115-9.275z" fill="url(#paint5_linear)"/><defs><radialGradient id="paint0_radial" cx="0" cy="0" r="1" gradientUnits="userSpaceOnUse" gradientTransform="rotate(-135 483.435 89.245) scale(528.068)"><stop stop-color="#FFA011"/><stop offset="1" stop-color="#FF1564"/><stop offset="1" stop-color="#FF1167"/></radialGradient><radialGradient id="paint2_radial" cx="0" cy="0" r="1" gradientUnits="userSpaceOnUse" gradientTransform="rotate(-156.415 366.764 209.664) scale(364.303 408.346)"><stop stop-color="#FF1167"/><stop offset="1" stop-color="#FF1167" stop-opacity="0"/></radialGradient><radialGradient id="paint3_radial" cx="0" cy="0" r="1" gradientUnits="userSpaceOnUse" gradientTransform="rotate(-135.255 529.767 236.847) scale(707.065 792.546)"><stop stop-color="#BD00FF" stop-opacity=".9"/><stop offset="1" stop-color="#BD00FF" stop-opacity="0"/></radialGradient><radialGradient id="paint4_radial" cx="0" cy="0" r="1" gradientUnits="userSpaceOnUse" gradientTransform="rotate(-93.565 643.421 123.866) scale(377.478 423.803)"><stop stop-color="#FFA011"/><stop offset="1" stop-color="#FFA011" stop-opacity="0"/></radialGradient><linearGradient id="paint1_linear" x1="506.636" y1="519.079" x2="454.425" y2="122.501" gradientUnits="userSpaceOnUse"><stop stop-color="#FFA011"/><stop offset="1" stop-color="#FF1564"/><stop offset="1" stop-color="#FF1167"/></linearGradient><linearGradient id="paint5_linear" x1="798.926" y1="318.139" x2="204.024" y2="589.737" gradientUnits="userSpaceOnUse"><stop stop-color="#BD00FF" stop-opacity=".9"/><stop offset="1" stop-color="#1400FF" stop-opacity=".4"/></linearGradient></defs></svg>