<svg width="961" height="321" fill="none" xmlns="http://www.w3.org/2000/svg"><path fill-rule="evenodd" clip-rule="evenodd" d="M518.799 68.403a99.997 99.997 0 0154.119 130.656 99.994 99.994 0 01-54.119 54.119 99.999 99.999 0 110-184.775z" fill="url(#paint0_radial)"/><mask id="a" maskUnits="userSpaceOnUse" x="358" y="38" width="246" height="246"><path fill-rule="evenodd" clip-rule="evenodd" d="M541.407 81.455a100 100 0 11-121.754 158.67 100 100 0 01121.754-158.67z" fill="url(#paint1_linear)"/></mask><g mask="url(#a)" fill-rule="evenodd" clip-rule="evenodd"><path d="M508.597 15.749c33.68 27.167 72.429 67.878 47.869 110.305-24.561 42.427-47.888 20.425-118.247 61.048-44.345 25.602-38.704 71.42-76.957 60.025-37.404-11.142-7.181-55.137-22.265-91.133-13.749-32.812-34.227-64.54-23.905-98.586 12.504-41.24 39.513-82.768 81.641-91.838 42.034-9.05 78.399 23.183 111.864 50.179z" fill="url(#paint2_radial)"/><path d="M523.208-15.301c24.006 36.002 59.156 71.06 31.693 111.668-21.552 31.868-73.552 34.638-144.039 44.94-49.974 11.158-62.864 67.348-95.955 45.027-32.355-21.825 8.123-79.713 4.503-118.573-3.299-35.422-13.344-71.826 6.694-101.222 24.273-35.608 62.472-67.15 105.384-63.196 42.815 3.944 67.867 45.583 91.72 81.356z" fill="url(#paint3_radial)"/><path d="M291.436 140.049c11.033-41.75 32.354-93.631 81.107-88.51 48.753 5.12 38.204 35.333 104.021 82.929 41.481 29.997 80.989 6.213 86.219 45.713 5.113 38.624-47.384 28.981-74.071 57.374-24.326 25.882-44.915 57.456-80.202 61.902-42.743 5.384-91.676-2.334-117.164-37.039-25.431-34.627-10.873-80.884.09-122.369z" fill="url(#paint4_radial)"/></g><path fill-rule="evenodd" clip-rule="evenodd" d="M543.204 82.867a99.994 99.994 0 0129.714 39.655l-.009.004c1.345 3.245 1.647 6.929.859 10.975-1.973 10.125-10.662 21.95-24.722 33.64-14.059 11.69-32.702 22.592-53.038 31.016-20.336 8.423-41.228 13.897-59.435 15.572-18.208 1.675-32.714-.541-41.268-6.307-3.418-2.303-5.81-5.122-7.154-8.367l-.009.004a99.995 99.995 0 01-7.029-49.052c-17.383 14.15-29.632 28.625-35.299 41.857-6.84 15.975-3.704 29.246 8.923 37.756 12.626 8.509 34.037 11.781 60.911 9.309 26.875-2.473 57.712-10.552 87.728-22.985 30.016-12.433 57.533-28.525 78.285-45.78 20.752-17.255 33.578-34.708 36.489-49.654 2.911-14.945-4.256-26.547-20.389-33.006-13.363-5.35-32.26-6.924-54.557-4.637z" fill="url(#paint5_linear)"/><defs><radialGradient id="paint0_radial" cx="0" cy="0" r="1" gradientUnits="userSpaceOnUse" gradientTransform="rotate(-135 361.932 -4.94) scale(264.034)"><stop stop-color="#FFA011"/><stop offset="1" stop-color="#FF1564"/><stop offset="1" stop-color="#FF1167"/></radialGradient><radialGradient id="paint2_radial" cx="0" cy="0" r="1" gradientUnits="userSpaceOnUse" gradientTransform="matrix(-166.93547 -72.88028 81.69148 -187.11792 549.767 274.675)"><stop stop-color="#FF1167"/><stop offset="1" stop-color="#FF1167" stop-opacity="0"/></radialGradient><radialGradient id="paint3_radial" cx="0" cy="0" r="1" gradientUnits="userSpaceOnUse" gradientTransform="matrix(-251.09498 -248.86982 278.95747 -281.45163 609.917 389.394)"><stop stop-color="#BD00FF" stop-opacity=".9"/><stop offset="1" stop-color="#BD00FF" stop-opacity="0"/></radialGradient><radialGradient id="paint4_radial" cx="0" cy="0" r="1" gradientUnits="userSpaceOnUse" gradientTransform="rotate(-93.565 442.03 -50.751) scale(188.739 211.902)"><stop stop-color="#FFA011"/><stop offset="1" stop-color="#FFA011" stop-opacity="0"/></radialGradient><linearGradient id="paint1_linear" x1="493.583" y1="259.935" x2="467.478" y2="61.646" gradientUnits="userSpaceOnUse"><stop stop-color="#FFA011"/><stop offset="1" stop-color="#FF1564"/><stop offset="1" stop-color="#FF1167"/></linearGradient><linearGradient id="paint5_linear" x1="639.728" y1="159.465" x2="342.277" y2="295.264" gradientUnits="userSpaceOnUse"><stop stop-color="#BD00FF" stop-opacity=".9"/><stop offset="1" stop-color="#1400FF" stop-opacity=".4"/></linearGradient></defs></svg>
